<svg xmlns="http://www.w3.org/2000/svg" xmlns:xlink="http://www.w3.org/1999/xlink" width="580" height="122" viewBox="0 0 580 122">
  <defs>
    <style>
      .logo-text {
        fill: #fff;
      }
      .logo-blue {
        fill: url(#gradient-blue);
      }
      .logo-orange {
        fill: url(#gradient-orange);
      }
      .logo-green {
        fill: url(#gradient-green);
      }
      .logo-white {
        fill: url(#gradient-white);
      }
    </style>
    <linearGradient id="gradient-blue" gradientUnits="userSpaceOnUse" x1="21.125" y1="0.313" x2="21.125" y2="121.032">
      <stop offset="0" stop-color="#53C4FE"/>
      <stop offset="1" stop-color="#0D84F4"/>
    </linearGradient>
    <linearGradient id="gradient-orange" gradientUnits="userSpaceOnUse" x1="0.656" y1="13.281" x2="0.656" y2="108.25">
      <stop offset="0" stop-color="#F9B93B"/>
      <stop offset="1" stop-color="#FA7535"/>
    </linearGradient>
    <linearGradient id="gradient-green" gradientUnits="userSpaceOnUse" x1="21.125" y1="14.375" x2="21.125" y2="106.938">
      <stop offset="0" stop-color="#AEF922"/>
      <stop offset="1" stop-color="#62BB0D"/>
    </linearGradient>
    <linearGradient id="gradient-white" gradientUnits="userSpaceOnUse" x1="37.75" y1="39" x2="37.75" y2="82.281">
      <stop offset="0" stop-color="#ffffff"/>
      <stop offset="0.6" stop-color="#ffffff"/>
      <stop offset="1" stop-color="#E5F6D2"/>
    </linearGradient>
  </defs>
  <path class="logo-text" d="M288.46,99.805l10.3-49.02c0.837-4.057-1.6-8.233-6.369-8.217H280.525l-1.618,6.91h9.263c2.059,0,2.527,1.316,2.126,2.965l-10.123,47.712c-1.193,5.64,2,7.317,8.028,7.317h13.615l1.885-6.192H289.846c-0.978,0-1.605-.475-1.386-1.475M250.186,88.592H201.738l-1.646,5.653h48.449Zm25.37-73.221H266.95c-3.838,4.933-11.177,12.664-15.727,14.6h-5.494c1.16-1.864,7.462-14.6,7.462-14.6H244.3l-7.331,14.244c-5.243-3.522-7.5-9.475-9.372-14.244h-9.458c1.215,3.5,3.382,10.723,7.552,14.29h-13.1l-1.676,7.1h21.413a42.508,42.508,0,0,1-4.487,6.119H206.387l-1.679,6.835h17.127c-5.526,5.7-13.116,10.159-19.041,10.159l-1.73,7.65s9.189-1.683,13.739-3.954l-2.642,12.07c-0.835,3.614.122,6.3,3.76,6.3l35.924,0c2.885,0,3.653,2.02,2.964,5.035l-2.077,7.89c-1.059,3.83-2.864,5.879-6.078,5.879H214.562l-2.219,6.482h32.949c7.455,0,12.795-.667,14.811-9.031l3.975-17.8c0.61-2.633-1.75-4.791-4.127-4.775l2.254-11.521a20.893,20.893,0,0,0,6.409,3.376L271.259,62c-4.75-2.255-10.3-7.257-11.776-12.25h13.742l1.74-7.1H238.118l3.761-6h30.14l1.629-6.94H263.112a78.512,78.512,0,0,0,12.444-14.334M253.99,68.619l-1.357,6.622H220.34l2.493-11.084h27.9c4.522,0,3.483,3.264,3.256,4.462M250.882,50a24.6,24.6,0,0,0,3.955,7.13H225.056A45.548,45.548,0,0,0,232.11,50Zm-52.995-35.27c-1.888,0-6.019.246-7.911,1.255a4.488,4.488,0,0,1,.109-1.16h-7.95l-18.267,82.54c-0.472,2.319-1.184,2.851-1.845,2.851H158.2l-1.632,7.1h7.463c1.67,0,5.786-1.158,7.17-7.426l5.217-24.022h11.623l-4.721,21.8c-0.266,1.351-.5,2.55-1.423,2.55H176.7l-1.527,7.1h6.681c1.52,0,6.96.642,8.581-7.052L207.4,22.826c1.41-6.425-4.914-8.092-9.516-8.092m-8.319,53.7H178.2l4.269-20.025h11.367Zm9.689-44.429-3.812,17.659H184.05l3.9-18.05c1.287-1.228,5.293-1.741,6.437-1.741,1.051,0,5.26.424,4.87,2.132M352.486,55.232h-20.2l6.18-27.6H330.4l-6.2,27.694H303.443L301.7,62.263h20.789l-9.814,45.122h8.314l9.865-45.376h19.905Zm-54.9-20.1L303.84,31.9a112.287,112.287,0,0,1-7.065-10.006,55.643,55.643,0,0,1-3.833-7.165l-8-.018s2.951,5.989,4.41,8.433,8.231,11.991,8.231,11.991M355.44,98.757L369.93,30.9c0.98-6.453,2.785-13.818-10.81-13.818H317.987l-1.58,6.738h37.435c8.2,0,8.358,3,7.134,8.906l-14.512,67.686c-0.74,4.121.279,6.927,7.232,6.927,0.43,0,15.13-.162,16.557-0.044l1.752-6.69-14.815-.013c-1.282,0-2.142-.216-1.75-1.831M493.484,56.913l0.327-1.453h-7.787l-0.251.868A51.97,51.97,0,0,1,476.5,73.8a51.232,51.232,0,0,1-6.1,6.56l-0.332.284-1.692,10.343,2.261-1.379c0.105-.079,17.718-10.811,22.851-32.692M403.689,25.929l2.472-11.319h-7.23l-2.68,12.26h7.23Zm15.883,50.1,0.21-.936,10.66-47.829a10.388,10.388,0,0,1,7.6-3.421h17.272c0.206-.009.345-0.009,0.487-0.009a5.476,5.476,0,0,1,3.361.8,2.573,2.573,0,0,1,.908,2.24,7.89,7.89,0,0,1-.27,1.96L449.255,76.025H457.2L467.768,28.2a12.944,12.944,0,0,0,.429-3.044A6.529,6.529,0,0,0,465,19.3c-2.078-1.257-4.913-1.78-8.54-1.789-0.3,0-.605,0-0.924.009H439.482c-0.566-.013-1.126-0.013-1.648-0.013-2.413.029-4.506,0.057-6.078,0.762l-0.093-.938H424.49l-12.845,58.69h7.927Zm18.179,23.082a3.174,3.174,0,0,1,.056-0.561l6.811-35.514h-3.283l6.843-33.912h-8.07l-6.854,34.919a66.377,66.377,0,0,1-4.405,9.5c-3.023,5.422-7.629,12.018-13.879,16.769a70.241,70.241,0,0,1-13.906,8.468,32.6,32.6,0,0,1-3.692,1.383,8.869,8.869,0,0,1-1.188.311l-0.747.132-2.09,7.31,1.865-.283c0.121-.029,23.173-3.589,37.471-24.447l-3.248,15.629a15.151,15.151,0,0,0-.327,2.916,5.39,5.39,0,0,0,1.709,4.338,7.5,7.5,0,0,0,4.947,1.4h26l0.208-.945,1.294-5.772H440.412c-2.166-.129-2.6-0.525-2.661-1.643m122.734,0.538c-2.884-2.556-9.322-9.27-13.791-21.527l-0.293-.785h-1.127l6.6-29.708H543.93L537.4,76.409a24.626,24.626,0,0,1-2.315,4.9,38.411,38.411,0,0,1-9.433,10.59,42.077,42.077,0,0,1-12.194,6.711,26.589,26.589,0,0,1-5.151,1.279l-0.821.08-2.143,7.437,1.686-.077c0.129,0,22.306-1.04,34.467-21.578,8.507,17.811,16.749,21.272,17.051,21.38l1.007,0.405,3.307-6.074-0.878-.6c0-.007-0.528-0.368-1.494-1.22M402.669,67.394l0.355,0.334,8.176-.081-1.357-1.859s-1.148-1.569-2.557-3.978a41.469,41.469,0,0,1-3.959-8.778l-0.269-.894-2.534.106,9.852-11.057c-0.043-.064,4.067-3.583,4.226-7.369a3.71,3.71,0,0,0-1.934-3.273,11.121,11.121,0,0,0-5.59-1.094H380.293l-1.3,6.683h25.937L375.28,68.126l-3.234,13.316L389.62,63.269l-9.876,44.242h8.023l0.2-.932,10.167-46.47c2.276,5.147,4.42,7.189,4.533,7.285M531.123,17.9l-1.287,6.3h21.192c-2.936,5.817-6.187,10.545-7.67,11.655a49.513,49.513,0,0,0-4.812,1.466l-0.062-1.1H531.3L520.539,84.878h7.55l0.2-.945,8.341-38.2A9.775,9.775,0,0,1,540.383,43a23.014,23.014,0,0,1,6.829-.789l0.418,0h12.229c2.511,0.174,2.553.742,2.721,2.112a5.871,5.871,0,0,1-.144,1.2l-8.247,39.53h7.561l8.038-37.965a16.587,16.587,0,0,0,.678-4.325,6.633,6.633,0,0,0-2.3-5.429,9.491,9.491,0,0,0-6.055-1.728h-9.343c0.674-.9,1.369-2.007,2.135-3.272,1.361-2.317,2.816-5.147,4.249-8.134h19.264l0.188-.959,1.086-5.34H531.123Zm-9.545,44.363,1.442-1.9-9.58,0L504.489,72.15l4.385-21.471,16.062,0.005,1.475-6.444H509.435l2.027-9.807h16.365l0.2-.945,1.241-5.771-16.381,0,2.7-13.067h-7.809l-6.158,29.6h-8.659l4.777-22.917H490.1l-4.771,22.917h-11.86l-1.49,6.444H501.08l-6.472,30.4h2.919a54.041,54.041,0,0,1-18.622,15.668,41.853,41.853,0,0,1-7.1,2.794,21.372,21.372,0,0,1-2.682.6l-0.866.123-1.362,6.9,1.492-.02c0.225,0.015,21-.417,39.084-25.822,5.661-7.949,14.094-19.042,14.108-19.059"/>
  <path class="logo-blue" d="M128.207,72.63c8.6-8.956,7.551-17.282-.063-24.426C116.8,37.557,103.364,28.965,89.392,20.928A258.6,258.6,0,0,0,46.59,1.233,16.057,16.057,0,0,0,25.463,13.452a260.358,260.358,0,0,0-.056,94.419A16.056,16.056,0,0,0,46.6,120.079a258.467,258.467,0,0,0,43.444-20.26C103.8,91.78,117.545,83.728,128.207,72.63Z"/>
  <path class="logo-orange" d="M25.4,14.537c-0.388-.119-0.774-0.245-1.162-0.362-8.524-2.569-16.009.362-19.377,9.559C0.641,35.267.882,48.125,0.882,60.78c0,12.574-.059,25.279,3.933,36.814,3.67,10.605,10.9,12.152,19.436,9.55,0.368-.112,1.474-0.577,1.842-0.691-2.677-14.92-4.818-29.945-4.818-45.643A260.252,260.252,0,0,1,25.4,14.537Z"/>
  <path class="logo-green" d="M25.29,14.369a260.567,260.567,0,0,0-.053,92.575A261.073,261.073,0,0,0,64.358,91.391C77.1,85.08,89.249,78.389,99.7,70.048c7.806-6.229,7.046-13.448-.058-19.173-10.537-8.489-22.949-15.1-35.888-21.411A261.723,261.723,0,0,0,25.29,14.369Z"/>
  <path class="logo-white" d="M39.005,41.475s-1.257,1.93-1.257,19.1,1.257,19.273,1.257,19.273c0.437,2.109,1.364,2.808,3.667,2.278,0,0,3.851-.6,19.351-8.437S80.116,62.937,80.116,62.937c1.677-1.654,2.1-2.751,0-4.554,0,0-4.246-3.906-18.086-11C48.338,40.369,42.672,39.2,42.672,39.2,40.749,38.646,39.531,39.25,39.005,41.475Z"/>
</svg>
